<svg width="1080" height="1080" viewBox="0 0 1080 1080" fill="none" xmlns="http://www.w3.org/2000/svg">
<rect width="1080" height="1080" rx="80" fill="url(#paint0_linear_101_70)"/>
<rect x="36.2598" y="37.884" width="1004.24" height="1004.24" rx="74.3879" fill="url(#paint1_linear_101_70)"/>
<path d="M366.668 692.679C367.021 674.426 354.694 651.7 335.924 644.687C302.274 632.115 269.883 634.941 238.393 651.4C225.422 658.182 217.144 669.365 211.774 682.617C210.015 686.958 208.312 687.903 203.949 686.486C175.514 677.258 147.032 668.174 118.505 659.232C114.903 658.098 113.695 657.166 115.116 652.879C121.487 633.499 131.468 615.5 144.532 599.833C159.355 582.004 176.983 567.902 198.121 558.216C213.286 551.265 229.165 547.082 245.588 544.118C269.003 539.893 292.591 540.243 316.025 541.341C341.007 542.515 365.571 547.583 388.999 556.98C389.444 557.162 389.973 557.202 390.871 557.378C393.824 551.265 396.797 545.203 399.69 539.102C413.448 510.066 432.873 485.177 456.748 463.98C487.502 436.672 523.28 418.485 563.558 409.966C579.09 406.68 594.993 404.812 610.828 403.393C624.532 402.166 638.418 401.614 652.149 402.295C686.615 404.007 720.242 410.131 752.149 424.013C775.154 434.019 795.731 447.594 814.643 464.095C836.316 483.007 854.072 504.927 867.3 530.332C874.273 543.725 879.768 557.887 885.965 571.691C886.719 573.37 887.688 574.951 889 577.403C886.474 578.402 884.046 579.627 881.475 580.336C856.097 587.358 830.688 594.267 805.306 601.276C798.279 603.215 791.348 605.501 784.286 607.291C783.241 607.553 780.864 606.132 780.519 605.043C772.034 578.164 758.319 554.505 737.159 535.666C722.423 522.56 705.362 513.49 686.254 508.129C665.9 502.415 645.147 500.614 624.216 501.754C592.083 503.506 562.182 512.343 537.127 533.414C512.627 554.004 497.262 580.685 488.463 611.18C483.656 627.857 480.1 644.852 479.595 662.298C479.104 679.355 477.759 696.482 478.721 713.468C480.5 744.88 487.251 775.33 501.542 803.681C508.693 817.87 517.917 830.794 529.448 841.654C549.136 860.198 572.411 871.868 599.218 876.953C616.289 880.189 633.417 880.829 650.512 879.844C675.768 878.376 699.965 871.961 721.407 858.028C740.855 845.392 756.351 828.677 767.087 808.017C772.741 797.135 777.291 785.679 782.474 774.176L888.984 803.784C884.297 814.733 879.932 824.543 875.881 834.483C868.95 851.486 859.453 867.067 848.195 881.374C838.722 893.41 828.503 905.062 817.32 915.499C796.905 934.553 773.7 949.93 747.408 959.616C730.442 965.866 712.842 970.622 695.236 974.843C685.025 977.289 674.263 977.802 663.705 978.369C648.851 979.168 633.933 979.926 619.088 979.403C596.174 978.608 573.433 975.116 551.335 968.999C527.044 962.297 503.965 951.796 482.953 937.887C473.423 931.585 464.584 924.176 455.789 916.84C445.839 908.54 436.291 899.756 426.558 891.175C423.312 894.889 418.493 901.266 412.792 906.721C404.733 914.432 396.35 921.883 387.534 928.705C362.545 948.051 334.167 961.103 304.307 970.634C291.341 974.774 277.521 976.724 263.928 978.258C251.361 979.675 238.564 979.788 225.905 979.437C207.378 978.921 189.48 974.938 172.329 967.616C156.764 960.965 143.018 951.671 131.569 939.312C116.299 922.828 105.619 903.581 102.491 881.238C100.418 866.453 99.4087 851.237 100.36 836.373C101.99 810.961 110.144 787.636 127.306 767.904C145.026 747.522 167.684 735.386 192.644 726.565C218.8 717.321 245.848 711.911 273.085 707.242C290.154 704.313 307.211 701.304 324.317 698.623C338.274 696.435 352.299 694.678 366.668 692.679ZM365.8 778.332C348.441 781.543 330.625 785.045 312.732 788.098C290.051 791.967 267.553 796.548 245.975 804.664C232.889 809.592 220.702 815.938 211.38 827.082C195.853 845.649 200.591 879.682 228.947 890.782C250.053 899.047 271.793 898.32 293.351 892.116C314.851 885.934 332.357 873.538 346.273 856.209C350.473 850.979 353.966 845.049 356.988 839.041C362.505 828.061 364.431 815.971 365.647 803.93C366.483 795.576 365.8 787.078 365.8 778.332Z" fill="white"/>
<defs>
<linearGradient id="paint0_linear_101_70" x1="-77" y1="-44.5" x2="1080" y2="1142.5" gradientUnits="userSpaceOnUse">
<stop stop-color="#0487B9"/>
<stop offset="0.475" stop-color="#01218C"/>
<stop offset="1" stop-color="#CE0C98"/>
</linearGradient>
<linearGradient id="paint1_linear_101_70" x1="1040.5" y1="1042.12" x2="36.2598" y2="37.884" gradientUnits="userSpaceOnUse">
<stop offset="0.12"/>
<stop offset="1" stop-opacity="0"/>
</linearGradient>
</defs>
</svg>
